<svg xmlns="http://www.w3.org/2000/svg" viewBox="0 0 48 48"><defs><style>.cls-1{fill:#a87e6b;}.cls-2{fill:#be927c;}.cls-3{fill:#ffdec7;}.cls-4{fill:#dad7e5;}.cls-5{fill:#edebf2;}.cls-6{fill:#db5669;}</style></defs><title>21. Stop illegal logging</title><g id="_21._Stop_illegal_logging" data-name="21. Stop illegal logging"><path class="cls-1" d="M38,47H28.41L27,44l-5,3H16c4.89-4.89,4-10.24,4-17.5,3.52,1.26,2.06,1.27,5.6,0l2.79,1,2.81-1,2.8,1C34,36.94,33.21,42.21,38,47Z"/><path class="cls-2" d="M36.36,45H30.41L29,42c-4.72,2.83-5.1,3-5,3a2.59,2.59,0,0,1-2.37-3.68C23.29,37.88,23,35.43,23,30.43l2.6-.93,2.79,1,2.81-1,2.8,1C34,37,33.45,40.77,36.36,45Z"/><path class="cls-1" d="M45,8C34,27,36.06,23.47,34.25,26.62l-1.92-2.27-2.94-.54-1.91-2.26L24.55,21l-1.92-2.27L32.88,1Z"/><path class="cls-2" d="M45,8,35.63,24.22l-2.24-.41-1.91-2.26L28.55,21a4.22,4.22,0,0,1-.43-4.84L35.88,2.73Z"/><path class="cls-3" d="M32.47,7.7C33.4,6.08,33.8,5,34.84,5.6s.2,1.65-.63,3.1A1,1,0,0,1,32.47,7.7Z"/><path class="cls-3" d="M35.17,15c.93-1.61,1.33-2.7,2.37-2.1s.2,1.65-.64,3.1A1,1,0,0,1,35.17,15Z"/><path class="cls-3" d="M29.21,17.36c.92-1.6,1.32-2.7,2.36-2.1s.21,1.65-.63,3.1A1,1,0,0,1,29.21,17.36Z"/><path class="cls-3" d="M25,39c-1.2,0-1-1.17-1-3a1,1,0,0,1,2,0C26,37.85,26.2,39,25,39Z"/><path class="cls-3" d="M30,37c-1.2,0-1-1.17-1-3a1,1,0,0,1,2,0C31,35.85,31.2,37,30,37Z"/><path class="cls-4" d="M17,18a7,7,0,0,1-7,7C2.13,25,.31,13.92,7.76,11.37A7,7,0,0,1,17,18Z"/><path class="cls-5" d="M15.24,22.63C8.46,25,3.05,16.68,7.76,11.37,14.51,9.06,20,17.31,15.24,22.63Z"/><path class="cls-5" d="M15.6,22.18a6.83,6.83,0,0,1-1.41,1.43l-9.8-9.8A6.83,6.83,0,0,1,5.82,12.4Z"/><path class="cls-6" d="M10,10a8,8,0,1,0,5.63,13.67,0,0,0,0,0,0,0A8,8,0,0,0,10,10ZM5.12,14.53l8.35,8.36C8,26.76,1.22,20,5.12,14.53Zm9.76,6.94L6.53,13.11C12,9.24,18.78,16,14.88,21.47Z"/></g></svg>